<svg xmlns="http://www.w3.org/2000/svg" width="1em" height="1em" viewBox="0 0 46 41"><g stroke="#000" fill="none" fill-rule="evenodd"><path d="M16.148 39.588L1.412 24.852a3.11 3.11 0 010-4.4l19.04-19.04a3.113 3.113 0 012.564-.89l12.602 2.133a3.112 3.112 0 012.726 2.727l2.135 12.602a3.113 3.113 0 01-.89 2.564l-19.04 19.04a3.113 3.113 0 01-4.401 0z"/><path d="M31.551 13.167a2.628 2.628 0 11-3.72-3.718 2.628 2.628 0 013.72 3.718z"/><path d="M31.551 9.45l6.042 6.04a4.272 4.272 0 006.041 0c1.668-1.668 1.555-4.27-.113-5.938l-6.042-6.04"/><path d="M17.726 20.27s8.352 7.936 0 16.287c0 0-8.979-7.726 0-16.287zM24.595 34.902s-.685-9.138 8.909-8.91" stroke-linecap="round"/></g></svg>