<svg width="99" height="32" viewBox="0 0 99 32" fill="none" xmlns="http://www.w3.org/2000/svg">
<path fill-rule="evenodd" clip-rule="evenodd" d="M4.61085 0H17.8143V3.15658H4.61085V0ZM42.8838 24.8775C43.2367 24.0708 43.4155 23.1978 43.4155 22.2829V9.45778H46.5843V22.2829C46.5843 24.9475 45.5308 27.4108 43.6177 29.219C42.6985 30.0878 41.6241 30.767 40.4242 31.2379C39.2032 31.7171 37.902 31.96 36.557 31.96C35.2119 31.96 33.9109 31.7171 32.6899 31.2379C31.49 30.767 30.4155 30.0878 29.4964 29.219C27.5834 27.4107 26.5298 24.9475 26.5298 22.2829V9.46962H29.6986V22.2829C29.6986 23.1978 29.8774 24.0708 30.2303 24.8775C30.5684 25.6507 31.0553 26.341 31.6776 26.9292C32.9563 28.1377 34.6892 28.8034 36.557 28.8034C38.4249 28.8034 40.1578 28.1377 41.4364 26.9292C42.0588 26.341 42.5457 25.6507 42.8838 24.8775ZM57.6894 31.5657V23.9563H65.8484L69.7324 31.5657H73.2872L68.6789 22.5369C68.9647 22.3269 69.2358 22.0957 69.491 21.8438C70.1634 21.1803 70.6918 20.4077 71.0618 19.5472C71.4466 18.6523 71.6417 17.7029 71.6417 16.7256C71.6417 15.7488 71.4469 14.7987 71.0625 13.9019C70.6931 13.0395 70.1654 12.2646 69.4946 11.5983C68.8241 10.9327 68.0447 10.4095 67.1778 10.0431C66.2773 9.66257 65.3239 9.46967 64.3443 9.46967H54.5205V31.5657H57.6894ZM57.6894 12.6264H64.3443C65.4386 12.6264 66.4732 13.0553 67.2575 13.8341C68.0413 14.6124 68.4729 15.6393 68.4729 16.7257C68.4729 17.8087 68.0425 18.83 67.261 19.6013C66.4779 20.3742 65.442 20.7998 64.3443 20.7998H57.6894V12.6264ZM81.1366 31.5658L87.7866 14.2272L94.4367 31.5658H97.829L89.3542 9.46984H86.2191L77.7444 31.5658H81.1366ZM9.63851 9.46984L1.16382 31.5658H4.55607L11.2061 14.2272L17.8562 31.5658H21.2484L12.7736 9.46984H9.63851Z" fill="white"/>
</svg>
