<svg xmlns="http://www.w3.org/2000/svg" width="1em" height="1em" viewBox="0 0 46 41"><defs><path id="4000-products_svg__a" d="M0 41h45.724V0H0z"/></defs><g fill="none" fill-rule="evenodd"><path d="M38.783 40.5H6.942A6.442 6.442 0 01.5 34.058V18.736a2.804 2.804 0 012.804-2.803h39.118a2.803 2.803 0 012.803 2.803v15.322a6.442 6.442 0 01-6.442 6.442z" stroke="#000"/><mask id="4000-products_svg__b" fill="#fff"><use xmlns:xlink="http://www.w3.org/1999/xlink" xlink:href="#4000-products_svg__a"/></mask><path stroke="#000" mask="url(#4000-products_svg__b)" d="M4.752 15.933h36.693V9.949H4.752z"/><path d="M34.226 6.41c-2.197.453-4.545.908-6.364.908-1.818 0-5.454-.909-8.307-3.826C17.587 1.48 16.405.5 14.358.5c-6.93 0-7.681 9.45-7.681 9.45H39.08c.6-4.879-4.855-3.54-4.855-3.54z" stroke="#000" mask="url(#4000-products_svg__b)"/><path d="M26.139 25.18s8.988-.23 8.988 8.989c0 0-9.219.69-8.989-8.988zM39.937 22.321s.152 5.921-5.921 5.921c0 0-.455-6.073 5.92-5.92zM7.544 26.071h8.5M7.862 29.729h12.377" stroke="#000" stroke-linecap="round" mask="url(#4000-products_svg__b)"/></g></svg>