<svg xmlns="http://www.w3.org/2000/svg" width="1em" height="1em" viewBox="0 0 46 41"><defs><path id="retailers_svg__a" d="M0 41h45.737V0H0z"/></defs><g fill="none" fill-rule="evenodd"><path d="M43.055 19.735V38.5a2 2 0 01-2 2H4.682a2 2 0 01-2-2V19.735" stroke="#000"/><mask id="retailers_svg__b" fill="#fff"><use xmlns:xlink="http://www.w3.org/1999/xlink" xlink:href="#retailers_svg__a"/></mask><path stroke="#000" mask="url(#retailers_svg__b)" d="M16.935 40.5h11.867V24.209H16.935zM2.682 33.404h14.253M28.802 33.404h14.253"/><path mask="url(#retailers_svg__b)" d="M41.055 6.415H4.682L.5 13.2h44.737z"/><path stroke="#000" stroke-linecap="round" stroke-linejoin="round" mask="url(#retailers_svg__b)" d="M41.055 6.415H4.682L.5 13.2h44.737z"/><path d="M38.032.5H7.706a3.024 3.024 0 00-3.024 3.023v2.892h36.373V3.523A3.023 3.023 0 0038.032.5" mask="url(#retailers_svg__b)"/><path d="M38.032.5H7.706a3.024 3.024 0 00-3.024 3.023v2.892h36.373V3.523A3.023 3.023 0 0038.032.5z" stroke="#000" mask="url(#retailers_svg__b)"/><path d="M4.228 19.963h0A3.728 3.728 0 01.5 16.235V13.2h7.457v3.034a3.729 3.729 0 01-3.729 3.728z" stroke="#000" stroke-linejoin="round" mask="url(#retailers_svg__b)"/><path d="M11.684 19.963h0a3.728 3.728 0 01-3.728-3.728V13.2h7.457v3.034a3.728 3.728 0 01-3.729 3.728z" stroke="#000" stroke-linejoin="round" mask="url(#retailers_svg__b)"/><path d="M19.14 19.963h0a3.728 3.728 0 01-3.728-3.728V13.2h7.457v3.034a3.728 3.728 0 01-3.729 3.728z" stroke="#000" stroke-linejoin="round" mask="url(#retailers_svg__b)"/><path d="M26.596 19.963h0a3.728 3.728 0 01-3.728-3.728V13.2h7.457v3.034a3.728 3.728 0 01-3.729 3.728z" stroke="#000" stroke-linejoin="round" mask="url(#retailers_svg__b)"/><path d="M34.053 19.963h0a3.728 3.728 0 01-3.729-3.728V13.2h7.457v3.034a3.728 3.728 0 01-3.728 3.728z" stroke="#000" stroke-linejoin="round" mask="url(#retailers_svg__b)"/><path d="M41.51 19.963h0a3.728 3.728 0 01-3.73-3.728V13.2h7.457v3.034a3.728 3.728 0 01-3.728 3.728z" stroke="#000" stroke-linejoin="round" mask="url(#retailers_svg__b)"/></g></svg>