<svg xmlns="http://www.w3.org/2000/svg" width="1em" height="1em" viewBox="0 0 48 42"><g stroke="#000" fill="none" fill-rule="evenodd" stroke-linecap="round"><path d="M28.739 6.103a20.603 20.603 0 00-2.911-.48M34.705 35.021c4.657-2.958 7.687-7.77 7.687-13.205 0-3.285-1.107-6.343-3.012-8.9M20.186 37.783c1.185.21 2.412.318 3.667.318 1.324 0 2.616-.122 3.862-.353M17.322 6.57c-4.66 1.542-8.426 4.685-10.43 8.665H2.038c-.85 0-1.538.69-1.538 1.538v7.357c0 .641.397 1.215.998 1.44l4.943 1.853c1.295 3.098 3.63 5.755 6.632 7.645M17.322 9.525V.501s5.53-.205 7.17 5.121c0 0 .611 1.721-.166 3.903M41.88 18.026s3.532.653 5.064-3.079M13.098 35.029l.5 5.01a1.261 1.261 0 001.255 1.136h3.433c.566 0 1.062-.378 1.214-.923l.768-2.765M34.71 35.029l-.416 4.99a1.26 1.26 0 01-1.256 1.156h-3.413a1.26 1.26 0 01-1.214-.923l-.768-2.765M12.586 16.695a2.356 2.356 0 014.711 0M27.756 8.965s5.134.496 9.154 5.935"/><path d="M28.402 9.05A6.452 6.452 0 1141.26 8.14a6.456 6.456 0 01-4.663 6.352"/></g></svg>