<?xml version="1.0" standalone="no"?>
<svg xmlns:xlink="http://www.w3.org/1999/xlink" id="wave" style="transform:rotate(0deg); transition: 0.3s" viewBox="0 0 1440 490" version="1.1" xmlns="http://www.w3.org/2000/svg"><defs><linearGradient id="sw-gradient-0" x1="0" x2="0" y1="1" y2="0"><stop stop-color="rgba(208, 248, 248, 1)" offset="0%"/><stop stop-color="rgba(208, 248, 248, 1)" offset="100%"/></linearGradient></defs><path style="transform:translate(0, 0px); opacity:1" fill="url(#sw-gradient-0)" d="M0,245L120,228.7C240,212,480,180,720,147C960,114,1200,82,1440,122.5C1680,163,1920,278,2160,310.3C2400,343,2640,294,2880,253.2C3120,212,3360,180,3600,204.2C3840,229,4080,310,4320,318.5C4560,327,4800,261,5040,236.8C5280,212,5520,229,5760,236.8C6000,245,6240,245,6480,261.3C6720,278,6960,310,7200,310.3C7440,310,7680,278,7920,220.5C8160,163,8400,82,8640,114.3C8880,147,9120,294,9360,334.8C9600,376,9840,310,10080,261.3C10320,212,10560,180,10800,138.8C11040,98,11280,49,11520,98C11760,147,12000,294,12240,326.7C12480,359,12720,278,12960,220.5C13200,163,13440,131,13680,98C13920,65,14160,33,14400,73.5C14640,114,14880,229,15120,236.8C15360,245,15600,147,15840,147C16080,147,16320,245,16560,277.7C16800,310,17040,278,17160,261.3L17280,245L17280,490L17160,490C17040,490,16800,490,16560,490C16320,490,16080,490,15840,490C15600,490,15360,490,15120,490C14880,490,14640,490,14400,490C14160,490,13920,490,13680,490C13440,490,13200,490,12960,490C12720,490,12480,490,12240,490C12000,490,11760,490,11520,490C11280,490,11040,490,10800,490C10560,490,10320,490,10080,490C9840,490,9600,490,9360,490C9120,490,8880,490,8640,490C8400,490,8160,490,7920,490C7680,490,7440,490,7200,490C6960,490,6720,490,6480,490C6240,490,6000,490,5760,490C5520,490,5280,490,5040,490C4800,490,4560,490,4320,490C4080,490,3840,490,3600,490C3360,490,3120,490,2880,490C2640,490,2400,490,2160,490C1920,490,1680,490,1440,490C1200,490,960,490,720,490C480,490,240,490,120,490L0,490Z"/></svg>